<svg xmlns="http://www.w3.org/2000/svg" width="1440" height="640" viewBox="0 0 1440 640" role="img" aria-labelledby="title desc">
  <title id="title">具身智能学习系统</title><desc id="desc">从第一性原理到受控真机部署的五个相连阶段。</desc>
  <defs><linearGradient id="rail" x1="64" y1="0" x2="1376" y2="0" gradientUnits="userSpaceOnUse"><stop stop-color="#55D6F5"/><stop offset=".28" stop-color="#6D8CFF"/><stop offset=".54" stop-color="#B08CFF"/><stop offset=".78" stop-color="#FF9F7A"/><stop offset="1" stop-color="#C8EE56"/></linearGradient><radialGradient id="wash" cx="0" cy="0" r="1" gradientTransform="translate(1110 40) rotate(145) scale(520 340)"><stop stop-color="#233766" stop-opacity=".54"/><stop offset="1" stop-color="#070A0F" stop-opacity="0"/></radialGradient><style>.s{font-family:"Noto Sans SC","Microsoft YaHei",Inter,-apple-system,BlinkMacSystemFont,"Segoe UI",sans-serif}.k{font-size:14px;font-weight:720;letter-spacing:2px;fill:#9BA6B8}.h{font-size:40px;font-weight:680;letter-spacing:-1px;fill:#F5F7FB}.verb{font-size:28px;font-weight:680;fill:#F3F5F9}.body{font-size:15px;font-weight:500;fill:#929DAF}.num{font-size:14px;font-weight:720;letter-spacing:1.5px;fill:#7D899C}.tag{font-size:12px;font-weight:700;letter-spacing:1.2px;fill:#AAB3C2}</style></defs>
  <rect width="1440" height="640" rx="40" fill="#070A0F"/><rect x="1" y="1" width="1438" height="638" rx="39" fill="none" stroke="#242C38" stroke-width="2"/><rect width="1440" height="640" rx="40" fill="url(#wash)"/>
  <g class="s"><text x="64" y="70" class="k">学习系统 · 从零到部署</text><text x="64" y="122" class="h">五个阶段，一个闭环。</text><text x="64" y="157" class="body">每个阶段都以产物、指标和清晰的晋级门结束。</text><path d="M96 215H1344" stroke="#252E3B" stroke-width="7" stroke-linecap="round"/><path d="M96 215H1344" stroke="url(#rail)" stroke-width="3" stroke-linecap="round"/>
    <g transform="translate(52 250)"><rect width="250" height="272" rx="28" fill="#10151E" stroke="#293341"/><rect x="24" y="24" width="44" height="5" rx="2.5" fill="#55D6F5"/><text x="202" y="35" class="num">01</text><text x="24" y="92" class="verb">理解</text><text x="24" y="126" class="k">基础知识</text><text x="24" y="170" class="body">数学 · 学习</text><text x="24" y="197" class="body">坐标系 · 控制</text><rect x="24" y="226" width="112" height="26" rx="13" fill="#172632"/><text x="80" y="244" text-anchor="middle" class="tag">14 节课程</text></g>
    <g transform="translate(324 250)"><rect width="250" height="272" rx="28" fill="#10151E" stroke="#293341"/><rect x="24" y="24" width="44" height="5" rx="2.5" fill="#6D8CFF"/><text x="202" y="35" class="num">02</text><text x="24" y="92" class="verb">仿真</text><text x="24" y="126" class="k">任务与数据</text><text x="24" y="170" class="body">MuJoCo · 专家</text><text x="24" y="197" class="body">轨迹 · 质量检查</text><rect x="24" y="226" width="112" height="26" rx="13" fill="#182139"/><text x="80" y="244" text-anchor="middle" class="tag">冒烟门</text></g>
    <g transform="translate(596 250)"><rect width="250" height="272" rx="28" fill="#10151E" stroke="#293341"/><rect x="24" y="24" width="44" height="5" rx="2.5" fill="#B08CFF"/><text x="202" y="35" class="num">03</text><text x="24" y="92" class="verb">学习</text><text x="24" y="126" class="k">策略</text><text x="24" y="170" class="body">VLA · BC · RL</text><text x="24" y="197" class="body">动作分块</text><rect x="24" y="226" width="112" height="26" rx="13" fill="#251D38"/><text x="80" y="244" text-anchor="middle" class="tag">闭环评测</text></g>
    <g transform="translate(868 250)"><rect width="250" height="272" rx="28" fill="#10151E" stroke="#293341"/><rect x="24" y="24" width="44" height="5" rx="2.5" fill="#FF9F7A"/><text x="202" y="35" class="num">04</text><text x="24" y="92" class="verb">预测</text><text x="24" y="126" class="k">世界模型</text><text x="24" y="170" class="body">滚动 · 规划</text><text x="24" y="197" class="body">奖励 · 风险</text><rect x="24" y="226" width="112" height="26" rx="13" fill="#30201D"/><text x="80" y="244" text-anchor="middle" class="tag">误差门</text></g>
    <g transform="translate(1140 250)"><rect width="250" height="272" rx="28" fill="#10151E" stroke="#293341"/><rect x="24" y="24" width="44" height="5" rx="2.5" fill="#C8EE56"/><text x="202" y="35" class="num">05</text><text x="24" y="92" class="verb">迁移</text><text x="24" y="126" class="k">部署</text><text x="24" y="170" class="body">适配 · HIL</text><text x="24" y="197" class="body">影子模式 · 安全</text><rect x="24" y="226" width="112" height="26" rx="13" fill="#202A17"/><text x="80" y="244" text-anchor="middle" class="tag">受控门</text></g>
    <g transform="translate(64 584)"><text class="k">概念</text><circle cx="54" cy="-5" r="3" fill="#3D4655"/><text x="72" class="k">运行</text><circle cx="126" cy="-5" r="3" fill="#3D4655"/><text x="144" class="k">度量</text><circle cx="198" cy="-5" r="3" fill="#3D4655"/><text x="216" class="k">晋级</text></g>
  </g>
</svg>
