<svg xmlns="http://www.w3.org/2000/svg" width="360" height="364" viewBox="0 0 360 364" role="img" aria-labelledby="title description">
<!-- Generated by scripts/build_knowledge_atlas.py; edit knowledge/atlas/*.json. -->
<title id="title">一次示意去噪的数值账本</title><desc id="description">教学算术，不是完整扩散采样器或实际动作轨迹。</desc>
<rect width="100%" height="100%" fill="#ffffff"/>
<g font-family="system-ui, -apple-system, Segoe UI, PingFang SC, Microsoft YaHei, sans-serif">
<text x="20.00" y="30.00" font-size="19" font-weight="650" text-anchor="start" fill="#172d40"><tspan x="20.00" dy="0.00">一次示意去噪的数值账本</tspan></text><text x="119.00" y="66.00" font-size="13" font-weight="400" text-anchor="middle" fill="#172d40"><tspan x="119.00" dy="0.00">分量1</tspan></text><text x="189.00" y="66.00" font-size="13" font-weight="400" text-anchor="middle" fill="#172d40"><tspan x="189.00" dy="0.00">分量2</tspan></text><text x="76.00" y="127.00" font-size="13" font-weight="400" text-anchor="end" fill="#172d40"><tspan x="76.00" dy="0.00">当前向量</tspan></text><rect x="84.00" y="101.00" width="70.00" height="58.00" rx="2" fill="#7faacd" stroke="#fff"/><text x="119.00" y="134.00" font-size="13" font-weight="400" text-anchor="middle" fill="#172d40"><tspan x="119.00" dy="0.00">0.8</tspan></text><rect x="154.00" y="101.00" width="70.00" height="58.00" rx="2" fill="#f4e5de" stroke="#fff"/><text x="189.00" y="134.00" font-size="13" font-weight="400" text-anchor="middle" fill="#172d40"><tspan x="189.00" dy="0.00">-0.2</tspan></text><text x="76.00" y="185.00" font-size="13" font-weight="400" text-anchor="end" fill="#172d40"><tspan x="76.00" dy="0.00">预测噪声</tspan></text><rect x="84.00" y="159.00" width="70.00" height="58.00" rx="2" fill="#9fbfda" stroke="#fff"/><text x="119.00" y="192.00" font-size="13" font-weight="400" text-anchor="middle" fill="#172d40"><tspan x="119.00" dy="0.00">0.6</tspan></text><rect x="154.00" y="159.00" width="70.00" height="58.00" rx="2" fill="#f9f2ef" stroke="#fff"/><text x="189.00" y="192.00" font-size="13" font-weight="400" text-anchor="middle" fill="#172d40"><tspan x="189.00" dy="0.00">-0.1</tspan></text><text x="76.00" y="243.00" font-size="13" font-weight="400" text-anchor="end" fill="#172d40"><tspan x="76.00" dy="0.00">示意更新</tspan><tspan x="76.00" dy="18.85">后</tspan></text><rect x="84.00" y="217.00" width="70.00" height="58.00" rx="2" fill="#afcae0" stroke="#fff"/><text x="119.00" y="250.00" font-size="13" font-weight="400" text-anchor="middle" fill="#172d40"><tspan x="119.00" dy="0.00">0.5</tspan></text><rect x="154.00" y="217.00" width="70.00" height="58.00" rx="2" fill="#f7ece6" stroke="#fff"/><text x="189.00" y="250.00" font-size="13" font-weight="400" text-anchor="middle" fill="#172d40"><tspan x="189.00" dy="0.00">-0.15</tspan></text><text x="20.00" y="303.00" font-size="14" font-weight="400" text-anchor="start" fill="#172d40"><tspan x="20.00" dy="0.00">全部数值无量纲；第三行=第一行−0.5×第二</tspan><tspan x="20.00" dy="20.30">行，仅解释更新方向。</tspan></text>
</g></svg>
