<svg xmlns="http://www.w3.org/2000/svg" width="360" height="306" viewBox="0 0 360 306" role="img" aria-labelledby="title description">
<!-- Generated by scripts/build_knowledge_atlas.py; edit knowledge/atlas/*.json. -->
<title id="title">按场景隔离而非随机拆帧</title><desc id="description">教学数据分配表。</desc>
<rect width="100%" height="100%" fill="#ffffff"/>
<g font-family="system-ui, -apple-system, Segoe UI, PingFang SC, Microsoft YaHei, sans-serif">
<text x="20.00" y="30.00" font-size="19" font-weight="650" text-anchor="start" fill="#172d40"><tspan x="20.00" dy="0.00">按场景隔离而非随机拆帧</tspan></text><text x="116.00" y="66.00" font-size="13" font-weight="400" text-anchor="middle" fill="#172d40"><tspan x="116.00" dy="0.00">A回合1</tspan></text><text x="180.00" y="66.00" font-size="13" font-weight="400" text-anchor="middle" fill="#172d40"><tspan x="180.00" dy="0.00">A回合2</tspan></text><text x="244.00" y="66.00" font-size="13" font-weight="400" text-anchor="middle" fill="#172d40"><tspan x="244.00" dy="0.00">B回合1</tspan></text><text x="308.00" y="66.00" font-size="13" font-weight="400" text-anchor="middle" fill="#172d40"><tspan x="308.00" dy="0.00">B回合2</tspan></text><text x="76.00" y="127.00" font-size="13" font-weight="400" text-anchor="end" fill="#172d40"><tspan x="76.00" dy="0.00">训练集</tspan></text><rect x="84.00" y="101.00" width="64.00" height="58.00" rx="2" fill="#7faacd" stroke="#fff"/><text x="116.00" y="134.00" font-size="13" font-weight="400" text-anchor="middle" fill="#172d40"><tspan x="116.00" dy="0.00">100</tspan></text><rect x="148.00" y="101.00" width="64.00" height="58.00" rx="2" fill="#7faacd" stroke="#fff"/><text x="180.00" y="134.00" font-size="13" font-weight="400" text-anchor="middle" fill="#172d40"><tspan x="180.00" dy="0.00">100</tspan></text><rect x="212.00" y="101.00" width="64.00" height="58.00" rx="2" fill="#ffffff" stroke="#fff"/><text x="244.00" y="134.00" font-size="13" font-weight="400" text-anchor="middle" fill="#172d40"><tspan x="244.00" dy="0.00">0</tspan></text><rect x="276.00" y="101.00" width="64.00" height="58.00" rx="2" fill="#ffffff" stroke="#fff"/><text x="308.00" y="134.00" font-size="13" font-weight="400" text-anchor="middle" fill="#172d40"><tspan x="308.00" dy="0.00">0</tspan></text><text x="76.00" y="185.00" font-size="13" font-weight="400" text-anchor="end" fill="#172d40"><tspan x="76.00" dy="0.00">测试集</tspan></text><rect x="84.00" y="159.00" width="64.00" height="58.00" rx="2" fill="#ffffff" stroke="#fff"/><text x="116.00" y="192.00" font-size="13" font-weight="400" text-anchor="middle" fill="#172d40"><tspan x="116.00" dy="0.00">0</tspan></text><rect x="148.00" y="159.00" width="64.00" height="58.00" rx="2" fill="#ffffff" stroke="#fff"/><text x="180.00" y="192.00" font-size="13" font-weight="400" text-anchor="middle" fill="#172d40"><tspan x="180.00" dy="0.00">0</tspan></text><rect x="212.00" y="159.00" width="64.00" height="58.00" rx="2" fill="#7faacd" stroke="#fff"/><text x="244.00" y="192.00" font-size="13" font-weight="400" text-anchor="middle" fill="#172d40"><tspan x="244.00" dy="0.00">100</tspan></text><rect x="276.00" y="159.00" width="64.00" height="58.00" rx="2" fill="#7faacd" stroke="#fff"/><text x="308.00" y="192.00" font-size="13" font-weight="400" text-anchor="middle" fill="#172d40"><tspan x="308.00" dy="0.00">100</tspan></text><text x="20.00" y="245.00" font-size="14" font-weight="400" text-anchor="start" fill="#172d40"><tspan x="20.00" dy="0.00">单元为帧数；零表示该组未分配给该数据集</tspan><tspan x="20.00" dy="20.30">。</tspan></text>
</g></svg>
