<svg xmlns="http://www.w3.org/2000/svg" width="360" height="555" viewBox="0 0 360 555" role="img" aria-labelledby="title description">
<!-- Generated by scripts/build_knowledge_atlas.py; edit knowledge/atlas/*.json. -->
<title id="title">同一校正力的两种坐标表示</title><desc id="description">箭头画在公共示意原点，坐标变换不表示两个物理力同时作用。</desc>
<rect width="100%" height="100%" fill="#ffffff"/>
<g font-family="system-ui, -apple-system, Segoe UI, PingFang SC, Microsoft YaHei, sans-serif">
<text x="20.00" y="30.00" font-size="19" font-weight="650" text-anchor="start" fill="#172d40"><tspan x="20.00" dy="0.00">同一校正力的两种坐标表示</tspan></text><path d="M22.00,55.00 L42.00,55.00" fill="none" stroke="#155e9c" stroke-width="3"/><text x="50.00" y="60.00" font-size="14" font-weight="400" text-anchor="start" fill="#172d40"><tspan x="50.00" dy="0.00">传感器分量: (1.5, 0) N</tspan></text><path d="M22.00,83.00 L42.00,83.00" fill="none" stroke="#a84413" stroke-width="3"/><text x="50.00" y="88.00" font-size="14" font-weight="400" text-anchor="start" fill="#172d40"><tspan x="50.00" dy="0.00">世界分量: (0, 1.5) N</tspan></text><text x="22.00" y="121.00" font-size="14" font-weight="400" text-anchor="start" fill="#172d40"><tspan x="22.00" dy="0.00">y (N)</tspan></text><rect x="60.00" y="140.00" width="274.00" height="274.00" rx="0" fill="#fff" stroke="#becbd5"/><path d="M60.00,140.00 L60.00,414.00" fill="none" stroke="#e2e9ee" stroke-width="1.5"/><path d="M60.00,414.00 L334.00,414.00" fill="none" stroke="#e2e9ee" stroke-width="1.5"/><text x="60.00" y="438.00" font-size="13" font-weight="400" text-anchor="middle" fill="#172d40"><tspan x="60.00" dy="0.00">-1.88</tspan></text><text x="53.00" y="419.00" font-size="13" font-weight="400" text-anchor="end" fill="#172d40"><tspan x="53.00" dy="0.00">-1.88</tspan></text><path d="M151.33,140.00 L151.33,414.00" fill="none" stroke="#e2e9ee" stroke-width="1.5"/><path d="M60.00,322.67 L334.00,322.67" fill="none" stroke="#e2e9ee" stroke-width="1.5"/><text x="151.33" y="438.00" font-size="13" font-weight="400" text-anchor="middle" fill="#172d40"><tspan x="151.33" dy="0.00">-0.625</tspan></text><text x="53.00" y="327.67" font-size="13" font-weight="400" text-anchor="end" fill="#172d40"><tspan x="53.00" dy="0.00">-0.625</tspan></text><path d="M242.67,140.00 L242.67,414.00" fill="none" stroke="#e2e9ee" stroke-width="1.5"/><path d="M60.00,231.33 L334.00,231.33" fill="none" stroke="#e2e9ee" stroke-width="1.5"/><text x="242.67" y="438.00" font-size="13" font-weight="400" text-anchor="middle" fill="#172d40"><tspan x="242.67" dy="0.00">0.625</tspan></text><text x="53.00" y="236.33" font-size="13" font-weight="400" text-anchor="end" fill="#172d40"><tspan x="53.00" dy="0.00">0.625</tspan></text><path d="M334.00,140.00 L334.00,414.00" fill="none" stroke="#e2e9ee" stroke-width="1.5"/><path d="M60.00,140.00 L334.00,140.00" fill="none" stroke="#e2e9ee" stroke-width="1.5"/><text x="334.00" y="438.00" font-size="13" font-weight="400" text-anchor="middle" fill="#172d40"><tspan x="334.00" dy="0.00">1.88</tspan></text><text x="53.00" y="145.00" font-size="13" font-weight="400" text-anchor="end" fill="#172d40"><tspan x="53.00" dy="0.00">1.88</tspan></text><path d="M197.00,140.00 L197.00,414.00" fill="none" stroke="#526777" stroke-width="1.5"/><path d="M60.00,277.00 L334.00,277.00" fill="none" stroke="#526777" stroke-width="1.5"/><path d="M197.00,277.00 L306.60,277.00" fill="none" stroke="#155e9c" stroke-width="3"/><path d="M306.60,277.00 L299.23,280.12 L299.23,273.88 Z" fill="#155e9c"/><circle cx="306.60" cy="277.00" r="3" fill="#155e9c"/><path d="M197.00,277.00 L197.00,167.40" fill="none" stroke="#a84413" stroke-width="3"/><path d="M197.00,167.40 L200.12,174.77 L193.88,174.77 Z" fill="#a84413"/><circle cx="197.00" cy="167.40" r="3" fill="#a84413"/><text x="180.00" y="463.00" font-size="14" font-weight="400" text-anchor="middle" fill="#172d40"><tspan x="180.00" dy="0.00">x (N)</tspan></text><text x="20.00" y="494.00" font-size="14" font-weight="400" text-anchor="start" fill="#172d40"><tspan x="20.00" dy="0.00">传感器坐标系相对世界旋转90°；这里只变换</tspan><tspan x="20.00" dy="20.30">力，不含原点平移和力矩。</tspan></text>
</g></svg>
