<svg xmlns="http://www.w3.org/2000/svg" width="360" height="524" viewBox="0 0 360 524" role="img" aria-labelledby="title description">
<!-- Generated by scripts/build_knowledge_atlas.py; edit knowledge/atlas/*.json. -->
<title id="title">四次快，一次慢</title><desc id="description">教学延迟样本，非设备测速。</desc>
<rect width="100%" height="100%" fill="#ffffff"/>
<g font-family="system-ui, -apple-system, Segoe UI, PingFang SC, Microsoft YaHei, sans-serif">
<text x="20.00" y="30.00" font-size="19" font-weight="650" text-anchor="start" fill="#172d40"><tspan x="20.00" dy="0.00">四次快，一次慢</tspan></text><text x="28.00" y="64.00" font-size="16" font-weight="600" text-anchor="start" fill="#172d40"><tspan x="28.00" dy="0.00">1</tspan></text><path d="M28.00,77.00 L28.00,111.00" fill="none" stroke="#778797" stroke-width="1.5"/><rect x="28.00" y="82.00" width="44.67" height="24.00" rx="2" fill="#155e9c" stroke="#155e9c"/><text x="304.00" y="100.00" font-size="14" font-weight="400" text-anchor="start" fill="#172d40"><tspan x="304.00" dy="0.00">10</tspan></text><text x="28.00" y="142.00" font-size="16" font-weight="600" text-anchor="start" fill="#172d40"><tspan x="28.00" dy="0.00">2</tspan></text><path d="M28.00,155.00 L28.00,189.00" fill="none" stroke="#778797" stroke-width="1.5"/><rect x="28.00" y="160.00" width="44.67" height="24.00" rx="2" fill="#a84413" stroke="#a84413"/><text x="304.00" y="178.00" font-size="14" font-weight="400" text-anchor="start" fill="#172d40"><tspan x="304.00" dy="0.00">10</tspan></text><text x="28.00" y="220.00" font-size="16" font-weight="600" text-anchor="start" fill="#172d40"><tspan x="28.00" dy="0.00">3</tspan></text><path d="M28.00,233.00 L28.00,267.00" fill="none" stroke="#778797" stroke-width="1.5"/><rect x="28.00" y="238.00" width="44.67" height="24.00" rx="2" fill="#5b4299" stroke="#5b4299"/><text x="304.00" y="256.00" font-size="14" font-weight="400" text-anchor="start" fill="#172d40"><tspan x="304.00" dy="0.00">10</tspan></text><text x="28.00" y="298.00" font-size="16" font-weight="600" text-anchor="start" fill="#172d40"><tspan x="28.00" dy="0.00">4</tspan></text><path d="M28.00,311.00 L28.00,345.00" fill="none" stroke="#778797" stroke-width="1.5"/><rect x="28.00" y="316.00" width="44.67" height="24.00" rx="2" fill="#16705a" stroke="#16705a"/><text x="304.00" y="334.00" font-size="14" font-weight="400" text-anchor="start" fill="#172d40"><tspan x="304.00" dy="0.00">10</tspan></text><text x="28.00" y="376.00" font-size="16" font-weight="600" text-anchor="start" fill="#172d40"><tspan x="28.00" dy="0.00">5</tspan></text><path d="M28.00,389.00 L28.00,423.00" fill="none" stroke="#778797" stroke-width="1.5"/><rect x="28.00" y="394.00" width="268.00" height="24.00" rx="2" fill="#8c365f" stroke="#8c365f"/><text x="304.00" y="412.00" font-size="14" font-weight="400" text-anchor="start" fill="#172d40"><tspan x="304.00" dy="0.00">60</tspan></text><text x="28.00" y="456.00" font-size="14" font-weight="400" text-anchor="start" fill="#172d40"><tspan x="28.00" dy="0.00">端到端延迟（ms）</tspan></text><text x="20.00" y="483.00" font-size="14" font-weight="400" text-anchor="start" fill="#172d40"><tspan x="20.00" dy="0.00">截止时间20 ms；5个样本中1个超期。</tspan></text>
</g></svg>
