<svg xmlns="http://www.w3.org/2000/svg" width="720" height="497" viewBox="0 0 720 497" role="img" aria-labelledby="title description">
<!-- Generated by scripts/build_knowledge_atlas.py; edit knowledge/atlas/*.json. -->
<title id="title">ReLU在零点改变斜率</title><desc id="description">确切的分段线性函数，不是训练结果。</desc>
<rect width="100%" height="100%" fill="#ffffff"/>
<g font-family="system-ui, -apple-system, Segoe UI, PingFang SC, Microsoft YaHei, sans-serif">
<text x="20.00" y="30.00" font-size="19" font-weight="650" text-anchor="start" fill="#172d40"><tspan x="20.00" dy="0.00">ReLU在零点改变斜率</tspan></text><path d="M22.00,55.00 L42.00,55.00" fill="none" stroke="#155e9c" stroke-width="3"/><text x="50.00" y="60.00" font-size="14" font-weight="400" text-anchor="start" fill="#172d40"><tspan x="50.00" dy="0.00">max(0,z)</tspan></text><text x="22.00" y="93.00" font-size="14" font-weight="400" text-anchor="start" fill="#172d40"><tspan x="22.00" dy="0.00">ReLU输出（无量纲）</tspan></text><rect x="58.00" y="112.00" width="636.00" height="285.00" rx="0" fill="#fff" stroke="#becbd5"/><path d="M58.00,112.00 L58.00,397.00" fill="none" stroke="#e2e9ee" stroke-width="1.5"/><path d="M58.00,397.00 L694.00,397.00" fill="none" stroke="#e2e9ee" stroke-width="1.5"/><text x="58.00" y="421.00" font-size="13" font-weight="400" text-anchor="middle" fill="#172d40"><tspan x="58.00" dy="0.00">-2</tspan></text><text x="51.00" y="402.00" font-size="13" font-weight="400" text-anchor="end" fill="#172d40"><tspan x="51.00" dy="0.00">0</tspan></text><path d="M217.00,112.00 L217.00,397.00" fill="none" stroke="#e2e9ee" stroke-width="1.5"/><path d="M58.00,325.75 L694.00,325.75" fill="none" stroke="#e2e9ee" stroke-width="1.5"/><text x="217.00" y="421.00" font-size="13" font-weight="400" text-anchor="middle" fill="#172d40"><tspan x="217.00" dy="0.00">-0.75</tspan></text><text x="51.00" y="330.75" font-size="13" font-weight="400" text-anchor="end" fill="#172d40"><tspan x="51.00" dy="0.00">0.825</tspan></text><path d="M376.00,112.00 L376.00,397.00" fill="none" stroke="#e2e9ee" stroke-width="1.5"/><path d="M58.00,254.50 L694.00,254.50" fill="none" stroke="#e2e9ee" stroke-width="1.5"/><text x="376.00" y="421.00" font-size="13" font-weight="400" text-anchor="middle" fill="#172d40"><tspan x="376.00" dy="0.00">0.5</tspan></text><text x="51.00" y="259.50" font-size="13" font-weight="400" text-anchor="end" fill="#172d40"><tspan x="51.00" dy="0.00">1.65</tspan></text><path d="M535.00,112.00 L535.00,397.00" fill="none" stroke="#e2e9ee" stroke-width="1.5"/><path d="M58.00,183.25 L694.00,183.25" fill="none" stroke="#e2e9ee" stroke-width="1.5"/><text x="535.00" y="421.00" font-size="13" font-weight="400" text-anchor="middle" fill="#172d40"><tspan x="535.00" dy="0.00">1.75</tspan></text><text x="51.00" y="188.25" font-size="13" font-weight="400" text-anchor="end" fill="#172d40"><tspan x="51.00" dy="0.00">2.47</tspan></text><path d="M694.00,112.00 L694.00,397.00" fill="none" stroke="#e2e9ee" stroke-width="1.5"/><path d="M58.00,112.00 L694.00,112.00" fill="none" stroke="#e2e9ee" stroke-width="1.5"/><text x="694.00" y="421.00" font-size="13" font-weight="400" text-anchor="middle" fill="#172d40"><tspan x="694.00" dy="0.00">3</tspan></text><text x="51.00" y="117.00" font-size="13" font-weight="400" text-anchor="end" fill="#172d40"><tspan x="51.00" dy="0.00">3.3</tspan></text><path d="M312.40,112.00 L312.40,397.00" fill="none" stroke="#526777" stroke-width="1.5"/><path d="M58.00,397.00 L694.00,397.00" fill="none" stroke="#526777" stroke-width="1.5"/><path d="M58.00,397.00 L185.20,397.00" fill="none" stroke="#155e9c" stroke-width="2.5"/><path d="M185.20,397.00 L312.40,397.00" fill="none" stroke="#155e9c" stroke-width="2.5"/><path d="M312.40,397.00 L439.60,310.64" fill="none" stroke="#155e9c" stroke-width="2.5"/><path d="M439.60,310.64 L694.00,137.91" fill="none" stroke="#155e9c" stroke-width="2.5"/><circle cx="58.00" cy="397.00" r="4" fill="#155e9c"/><circle cx="185.20" cy="397.00" r="4" fill="#155e9c"/><circle cx="312.40" cy="397.00" r="4" fill="#155e9c"/><circle cx="439.60" cy="310.64" r="4" fill="#155e9c"/><circle cx="694.00" cy="137.91" r="4" fill="#155e9c"/><text x="360.00" y="446.00" font-size="14" font-weight="400" text-anchor="middle" fill="#172d40"><tspan x="360.00" dy="0.00">预激活z（无量纲）</tspan></text>
</g></svg>
