<svg xmlns="http://www.w3.org/2000/svg" width="360" height="571" viewBox="0 0 360 571" role="img" aria-labelledby="title description">
<!-- Generated by scripts/build_knowledge_atlas.py; edit knowledge/atlas/*.json. -->
<title id="title">一条动作覆盖多个物理步</title><desc id="description">教学50 Hz策略与500 Hz物理推进。</desc>
<rect width="100%" height="100%" fill="#ffffff"/>
<g font-family="system-ui, -apple-system, Segoe UI, PingFang SC, Microsoft YaHei, sans-serif">
<text x="20.00" y="30.00" font-size="19" font-weight="650" text-anchor="start" fill="#172d40"><tspan x="20.00" dy="0.00">一条动作覆盖多个物理步</tspan></text><text x="28.00" y="66.00" font-size="16" font-weight="600" text-anchor="start" fill="#172d40"><tspan x="28.00" dy="0.00">动作a0保持</tspan></text><path d="M28.00,92.00 L330.00,92.00" fill="none" stroke="#cbd6df" stroke-width="1.5"/><rect x="28.00" y="80.00" width="151.00" height="24.00" rx="3" fill="#155e9c" stroke="#155e9c"/><text x="28.00" y="128.00" font-size="14" font-weight="400" text-anchor="start" fill="#172d40"><tspan x="28.00" dy="0.00">0 → 20 ms</tspan></text><text x="28.00" y="174.00" font-size="16" font-weight="600" text-anchor="start" fill="#172d40"><tspan x="28.00" dy="0.00">动作a1保持</tspan></text><path d="M28.00,200.00 L330.00,200.00" fill="none" stroke="#cbd6df" stroke-width="1.5"/><rect x="179.00" y="188.00" width="151.00" height="24.00" rx="3" fill="#a84413" stroke="#a84413"/><text x="28.00" y="236.00" font-size="14" font-weight="400" text-anchor="start" fill="#172d40"><tspan x="28.00" dy="0.00">20 → 40 ms</tspan></text><text x="28.00" y="282.00" font-size="16" font-weight="600" text-anchor="start" fill="#172d40"><tspan x="28.00" dy="0.00">物理步0</tspan></text><path d="M28.00,308.00 L330.00,308.00" fill="none" stroke="#cbd6df" stroke-width="1.5"/><rect x="28.00" y="296.00" width="15.10" height="24.00" rx="3" fill="#5b4299" stroke="#5b4299"/><text x="28.00" y="344.00" font-size="14" font-weight="400" text-anchor="start" fill="#172d40"><tspan x="28.00" dy="0.00">0 → 2 ms</tspan></text><text x="28.00" y="390.00" font-size="16" font-weight="600" text-anchor="start" fill="#172d40"><tspan x="28.00" dy="0.00">物理步1</tspan></text><path d="M28.00,416.00 L330.00,416.00" fill="none" stroke="#cbd6df" stroke-width="1.5"/><rect x="43.10" y="404.00" width="15.10" height="24.00" rx="3" fill="#16705a" stroke="#16705a"/><text x="28.00" y="452.00" font-size="14" font-weight="400" text-anchor="start" fill="#172d40"><tspan x="28.00" dy="0.00">2 → 4 ms</tspan></text><text x="28.00" y="480.00" font-size="14" font-weight="400" text-anchor="start" fill="#172d40"><tspan x="28.00" dy="0.00">共同时间轴：0 → 40 ms</tspan></text><text x="20.00" y="510.00" font-size="14" font-weight="400" text-anchor="start" fill="#172d40"><tspan x="20.00" dy="0.00">0为仿真时钟起点；仅展示前两个物理步，不</tspan><tspan x="20.00" dy="20.30">表示其余步骤不存在。</tspan></text>
</g></svg>
